<svg width="380" height="248" viewBox="0 0 380 248"
     xmlns="http://www.w3.org/2000/svg" role="img">
  <title>GitHub Stats — resitasrav</title>
  <rect width="380" height="248" rx="10" fill="#0d1117" stroke="#30363d" stroke-width="1"/>
  <rect x="1" y="1" width="378" height="246" rx="9" fill="#161b22" opacity="0.6"/>
  <text x="20" y="32" font-family="Segoe UI,Ubuntu,sans-serif" font-size="15" font-weight="600" fill="#e6edf3" text-anchor="start">Most Used Languages</text>
  <line x1="20" y1="42" x2="360" y2="42" stroke="#30363d" stroke-width="0.8"/>
  <text x="20" y="58" font-family="Segoe UI,Ubuntu,sans-serif" font-size="12" font-weight="normal" fill="#8b949e" text-anchor="start">HTML</text>
  <text x="360" y="58" font-family="Segoe UI,Ubuntu,sans-serif" font-size="11" font-weight="normal" fill="#e6edf3" text-anchor="end">63.1%</text>
  <rect x="20" y="62" width="300" height="7" rx="3" fill="#30363d"/>
  <rect x="20" y="62" width="189" height="7" rx="3" fill="#e34c26"/>
  <text x="20" y="86" font-family="Segoe UI,Ubuntu,sans-serif" font-size="12" font-weight="normal" fill="#8b949e" text-anchor="start">Python</text>
  <text x="360" y="86" font-family="Segoe UI,Ubuntu,sans-serif" font-size="11" font-weight="normal" fill="#e6edf3" text-anchor="end">13.3%</text>
  <rect x="20" y="90" width="300" height="7" rx="3" fill="#30363d"/>
  <rect x="20" y="90" width="39" height="7" rx="3" fill="#3572A5"/>
  <text x="20" y="114" font-family="Segoe UI,Ubuntu,sans-serif" font-size="12" font-weight="normal" fill="#8b949e" text-anchor="start">JavaScript</text>
  <text x="360" y="114" font-family="Segoe UI,Ubuntu,sans-serif" font-size="11" font-weight="normal" fill="#e6edf3" text-anchor="end">12.8%</text>
  <rect x="20" y="118" width="300" height="7" rx="3" fill="#30363d"/>
  <rect x="20" y="118" width="38" height="7" rx="3" fill="#f1e05a"/>
  <text x="20" y="142" font-family="Segoe UI,Ubuntu,sans-serif" font-size="12" font-weight="normal" fill="#8b949e" text-anchor="start">CSS</text>
  <text x="360" y="142" font-family="Segoe UI,Ubuntu,sans-serif" font-size="11" font-weight="normal" fill="#e6edf3" text-anchor="end">7.2%</text>
  <rect x="20" y="146" width="300" height="7" rx="3" fill="#30363d"/>
  <rect x="20" y="146" width="21" height="7" rx="3" fill="#663399"/>
  <text x="20" y="170" font-family="Segoe UI,Ubuntu,sans-serif" font-size="12" font-weight="normal" fill="#8b949e" text-anchor="start">C</text>
  <text x="360" y="170" font-family="Segoe UI,Ubuntu,sans-serif" font-size="11" font-weight="normal" fill="#e6edf3" text-anchor="end">3.5%</text>
  <rect x="20" y="174" width="300" height="7" rx="3" fill="#30363d"/>
  <rect x="20" y="174" width="10" height="7" rx="3" fill="#555555"/>
  <text x="20" y="198" font-family="Segoe UI,Ubuntu,sans-serif" font-size="12" font-weight="normal" fill="#8b949e" text-anchor="start">Makefile</text>
  <text x="360" y="198" font-family="Segoe UI,Ubuntu,sans-serif" font-size="11" font-weight="normal" fill="#e6edf3" text-anchor="end">0.1%</text>
  <rect x="20" y="202" width="300" height="7" rx="3" fill="#30363d"/>
  <rect x="20" y="202" width="4" height="7" rx="3" fill="#427819"/>

</svg>